<svg width="200" height="200" viewBox="0 0 200 200" fill="none" xmlns="http://www.w3.org/2000/svg">
<g clip-path="url(#clip0_2_24)">
<path d="M200 100C200 155.228 155.228 200 100 200C44.7715 200 0 155.228 0 100C0 44.7715 44.7715 0 100 0C155.228 0 200 44.7715 200 100ZM13 100C13 148.049 51.9512 187 100 187C148.049 187 187 148.049 187 100C187 51.9512 148.049 13 100 13C51.9512 13 13 51.9512 13 100Z" fill="#000"/>
<path d="M177 100.5C177 143.302 142.302 178 99.5 178C56.6979 178 22 143.302 22 100.5C22 57.6979 56.6979 23 99.5 23C142.302 23 177 57.6979 177 100.5ZM25.875 100.5C25.875 141.162 58.838 174.125 99.5 174.125C140.162 174.125 173.125 141.162 173.125 100.5C173.125 59.838 140.162 26.875 99.5 26.875C58.838 26.875 25.875 59.838 25.875 100.5Z" fill="#000"/>
<path d="M170 100C170 138.66 138.66 170 100 170C61.3401 170 30 138.66 30 100C30 61.3401 61.3401 30 100 30C138.66 30 170 61.3401 170 100ZM37 100C37 134.794 65.2061 163 100 163C134.794 163 163 134.794 163 100C163 65.2061 134.794 37 100 37C65.2061 37 37 65.2061 37 100Z" fill="#000"/>
<circle cx="99.5" cy="100.5" r="17.5" fill="#000"/>
<path d="M55 100C52.2386 100 49.9741 97.7558 50.2497 95.0081C51.3959 83.5806 56.4519 72.8374 64.6447 64.6447C72.8374 56.4519 83.5806 51.3959 95.0082 50.2497C97.7558 49.9741 100 52.2386 100 55V72.5C100 75.2614 97.7344 77.4445 95.0409 78.0532C90.9261 78.9831 87.1204 81.0598 84.0901 84.0901C81.0598 87.1204 78.9831 90.9261 78.0532 95.0409C77.4445 97.7344 75.2614 100 72.5 100H55Z" fill="#000"/>
<circle cx="124" cy="123" r="5" fill="#000"/>
<circle cx="138" cy="137" r="3" fill="#000"/>
</g>
<defs>
<clipPath id="clip0_2_24">
<rect width="200" height="200" fill="white"/>
</clipPath>
</defs>
</svg>
